# xmcd CD database file
#
# Track frame offsets:
#	150
#	15475
#	32004
#	50782
#	68791
#	83563
#	100193
#	116329
#	133825
#	150941
#	170746
#	189751
#	207414
#	222203
#	239329
#	262452
#	279593
#	292146
#
# Disc length: 4141 seconds
#
# Revision: 2
# Processed by: cddbd v1.5.2PL0 Copyright (c) Steve Scherf et al.
# Submitted via: CDex 1.51
#
DISCID=09102b12
DTITLE=Billy Ray Cyrus - Achy Breaky Heart
DYEAR=2001
DGENRE=Country
TTITLE0=Achy Breaky Heart
TTITLE1=Trail Of Tears
TTITLE2=Harper Valley PTA
TTITLE3=In The Heart Of A Woman
TTITLE4=Busy Man
TTITLE5=Never Thought I'd Fall In Love With You
TTITLE6=Deja Blue
TTITLE7=Storm In The Heartland
TTITLE8=Give My Heart To You
TTITLE9=It's All The Same To Me
TTITLE10=Three Little Words
TTITLE11=His Shoes
TTITLE12=Truth Is I Lied
TTITLE13=It Won't Be The Last
TTITLE14=Only God Can Stop Me From Loving You
TTITLE15=Someday, Somewhere, Somehow
TTITLE16=These Boots Are Made For Walkin'
TTITLE17=Some Gave All
EXTD=YEAR: 2001
EXTT0=
EXTT1=
EXTT2=
EXTT3=
EXTT4=
EXTT5=
EXTT6=
EXTT7=
EXTT8=
EXTT9=
EXTT10=
EXTT11=
EXTT12=
EXTT13=
EXTT14=
EXTT15=
EXTT16=
EXTT17=
PLAYORDER=
